<svg class="SiteHeader-logo"
      xmlns="http://www.w3.org/2000/svg" viewBox="0 0 510 115" xml:space="preserve">
  <path fill="#e91b75"
        d="M44.3 44.4H5v26.2h20.8L5 91.4 23.5 110l20.8-20.8V110h26.2V44.4z"/>
  <path d="M70.5 44.4V5H44.3v65.6h65.4V44.4z"/>
  <path fill="#221f1f"
        d="M149.7 30.5h10.4v20.6h18.4V30.5h10.4v54h-10.4V61.1h-18.4v23.4h-10.4zM224.2 58.3c-.8-3.6-3.1-6.2-7.5-6.2s-6.5 2.6-7.5 6.2h15zm9.4 15.8c-2.2 6.2-7.6 11.5-16.6 11.5-10.8 0-18.3-7.6-18.3-21.6 0-14 7.3-21.6 18-21.6 10.8 0 18.1 7.6 18.1 21.6v3h-26c.5 5.9 2.8 8.9 8 8.9 4.7 0 6.8-2.9 7.5-5l9.3 3.2zM243.9 30.5h34.2v10h-23.8v12h21.6v10h-21.6v22h-10.4zM311.6 64c0-8.5-2.4-11.9-7.9-11.9s-7.9 3.5-7.9 11.9 2.4 12 7.9 12 7.9-3.6 7.9-12m-25.8 0c0-14 7.2-21.6 17.9-21.6S321.6 50 321.6 64c0 14-7.2 21.6-17.9 21.6S285.8 78 285.8 64M329.3 74.8h10.1V53.3h-9.2v-9.6H349v2c.1-.2 2.5-3.2 6.6-3.2 5.5 0 11.8 4.5 12.2 15.6l-9.7 1.5c-.5-5.2-2.5-7.5-5.2-7.5-3 0-3.6 1.9-3.6 2.8v20H364v9.6h-34.6v-9.7zM386.3 63.9c.6 4.7 2.2 11.7 11.7 11.7 4.9 0 9.4-2.1 9.4-7.1 0-4.2-2.8-6.3-9.8-8.2-9.9-2.5-17.8-6.1-17.8-16.1 0-7.6 6.1-14.9 17.8-14.9 8.9 0 16.6 4.9 19 14.9l-9.6 2.1c-.8-3-3.5-6.9-9.4-6.9-4.8 0-7.4 2.4-7.4 4.9 0 3.3 4.6 4.8 10.3 6.5 7.7 2.5 17.3 5.2 17.3 17.8 0 10-7.7 17.1-19.8 17.1-16.5 0-20.5-11.4-21.3-20l9.6-1.8zM426.9 30.5h10v14.2s3.8-2.2 8.2-2.2c9.5 0 16.1 7.3 16.1 17.3v24.7h-10v-25c0-4.2-2.2-7.4-7.2-7.4-4.8 0-7.1 2.8-7.1 6.7v25.7h-10v-54zM494.3 58.3c-.8-3.6-3.1-6.2-7.5-6.2s-6.5 2.6-7.5 6.2h15zm9.5 15.8c-2.2 6.2-7.6 11.5-16.6 11.5-10.8 0-18.3-7.6-18.3-21.6 0-14 7.3-21.6 18-21.6C497.7 42.4 505 50 505 64v3h-26c.5 5.9 2.8 8.9 8 8.9 4.7 0 6.8-2.9 7.5-5l9.3 3.2z"/>
</svg>